# xmcd CD database file generated by OrangeCD 5.2
#
# Track frame offsets:
#	150
#	9782
#	21296
#	33707
#	46128
#	51837
#	64467
#	71088
#	81558
#	88839
#	100353
#	113598
#	120103
#	131936
#	142464
#	150692
#	160799
#	167644
#	176605
#
# Disc length: 2544 seconds
#
# Revision: 1
# Processed by: cddbd v1.5.2PL0 Copyright (c) Steve Scherf et al.
# Submitted via: OrangeCD 5.2
#
DISCID=0b09ee13
DTITLE=Craig Dobbins - Fingerpickin'
DYEAR=2006
DGENRE=Guitar
TTITLE0=That's My Boy
TTITLE1=Streetwise
TTITLE2=Julie
TTITLE3=Chester
TTITLE4=The Wavular Sidestep
TTITLE5=Hang Loose
TTITLE6=Once Again
TTITLE7=The Ballad Of Fred Smith
TTITLE8=Through The Tears
TTITLE9=The Crawl
TTITLE10=Luayne
TTITLE11=Summer Walks
TTITLE12=Just Takin' My Time
TTITLE13=Au Contraire (Solo Version)
TTITLE14=Headin' Home
TTITLE15=Appalachian Lullaby
TTITLE16=Sand Mountain Sleigh Ride
TTITLE17=Walkin' Shoes
TTITLE18=Au Contraire ('Remembering Marcel' Version)
EXTD=
EXTT0=
EXTT1=
EXTT2=
EXTT3=
EXTT4=
EXTT5=
EXTT6=
EXTT7=
EXTT8=
EXTT9=
EXTT10=
EXTT11=
EXTT12=
EXTT13=
EXTT14=
EXTT15=
EXTT16=
EXTT17=
EXTT18=
PLAYORDER=
